<?xml version="1.0" encoding="UTF-8" standalone="no"?>
<!-- Created with Inkscape (http://www.inkscape.org/) -->

<svg
   version="1.1"
   id="svg1"
   width="460.98315"
   height="278.68774"
   viewBox="0 0 460.98315 278.68774"
   xml:space="preserve"
   xmlns="http://www.w3.org/2000/svg"
   xmlns:svg="http://www.w3.org/2000/svg"><defs
     id="defs1" /><g
     id="g1"
     transform="translate(-112.2168,-445.77521)"><path
       id="path15571"
       style="fill:#cbc06f;fill-opacity:1"
       d="m 247.5957,445.77539 c -3.05484,-0.0102 -6.57186,0.40775 -13.13672,1.24609 -7.52181,0.96055 -16.60078,2.58699 -20.17578,3.61329 -3.57499,1.02628 -8.075,2.39779 -10,3.04882 -0.91207,0.30846 -2.11492,0.80967 -3.3164,1.26563 -0.47577,0.15237 -1.41317,0.41928 -1.75,0.5332 -1.925,0.65103 -5.07501,1.85134 -7,2.66797 -1.925,0.81664 -6.42501,2.90887 -10,4.65039 -3.575,1.74151 -8.75001,4.49315 -11.5,6.11328 -2.75,1.62012 -8.58506,5.65113 -12.9668,8.95899 -4.38175,3.30786 -11.21015,9.27809 -15.17383,13.26757 -3.96367,3.9895 -9.31086,10.20239 -11.88281,13.80665 -2.57195,3.60425 -6.35374,9.80886 -8.4043,13.78711 -2.05055,3.97825 -4.29449,8.80742 -4.98633,10.73242 -0.69183,1.92499 -2.11914,7.01711 -3.17187,11.31445 -1.31901,5.38428 -1.91406,11.37184 -1.91406,19.26172 0,8.16205 0.54279,13.41233 1.89258,18.2832 1.04137,3.75794 3.17888,9.47517 4.75,12.70508 1.57112,3.2299 5.37379,8.4108 8.44921,11.51367 3.28894,3.31828 8.23077,6.93415 12,8.78125 3.52457,1.72719 9.10821,3.64096 12.40821,4.25195 3.29999,0.61099 8.925,0.8644 12.5,0.5625 3.57499,-0.30189 9.3304,-1.283 12.79101,-2.17968 3.46061,-0.89669 7.82873,-2.27183 9.70703,-3.05664 0.0728,-0.0304 0.27209,-0.14382 0.35352,-0.17969 1.93896,-0.60193 3.69724,-1.19201 4.71484,-1.61719 1.87831,-0.78481 6.71081,-3.42867 10.74024,-5.875 4.02943,-2.44633 10.1365,-7.25761 13.57031,-10.6914 3.4338,-3.43381 7.87344,-8.70138 9.86719,-11.70508 1.99375,-3.00371 4.72624,-8.62342 6.07031,-12.48828 1.9941,-5.73403 2.37996,-8.51243 2.09766,-15.10157 -0.25283,-5.90139 -0.94304,-9.2095 -2.5625,-12.29101 -1.21877,-2.31906 -3.06547,-5.06742 -4.10352,-6.10547 -1.03806,-1.03806 -3.37261,-2.62782 -5.1875,-3.5332 -1.8752,-0.93548 -5.70002,-1.64649 -8.86133,-1.64649 -3.0596,0 -7.49177,0.73699 -9.84765,1.63672 -0.97272,0.37148 -1.77691,0.7751 -2.49805,1.16016 -0.89259,0.21116 -1.91893,0.3887 -2.56836,0.63672 -2.35589,0.89971 -4.2832,2.01805 -4.2832,2.48632 0,0.46826 3.2845,0.57372 7.29882,0.23438 5.79963,-0.49025 7.97438,-0.26752 10.5879,1.08398 2.32261,1.20107 4.03166,3.32429 5.8164,7.22266 2.25429,4.92402 2.48354,6.50898 2.12305,14.67773 -0.36829,8.34534 -0.78947,9.95366 -4.73828,18.10352 -3.52516,7.2755 -5.84941,10.44658 -12.46094,17 -5.52014,5.47163 -10.21225,9.08217 -14.62695,11.25391 -1.62714,0.80044 -3.68054,1.6681 -5.69141,2.46875 -0.42697,0.13421 -1.02854,0.38139 -1.39648,0.48242 -3.10965,0.85384 -8.44001,1.55273 -11.84571,1.55273 -3.40569,0 -8.73606,-0.73222 -11.8457,-1.62695 -3.10965,-0.89474 -7.2392,-2.4261 -9.17773,-3.4043 -1.93854,-0.97821 -5.66681,-4.0681 -8.28321,-6.86523 -2.61639,-2.79714 -5.68012,-7.22634 -6.80859,-9.84375 -1.12847,-2.61742 -2.73186,-8.58477 -3.56445,-13.25977 -1.28058,-7.1903 -1.32392,-10.11786 -0.28125,-19 0.67791,-5.77499 2.53224,-14.4753 4.12109,-19.33594 1.58886,-4.86062 4.48847,-11.80126 6.44336,-15.42187 1.95489,-3.6206 5.30574,-9.16287 7.44726,-12.31641 2.14153,-3.15354 7.61237,-9.66249 12.15821,-14.46484 4.54583,-4.80237 11.76867,-11.39851 16.05078,-14.6582 4.28211,-3.25969 11.03882,-7.84307 15.01367,-10.18555 3.97485,-2.34248 9.78062,-5.46164 12.90234,-6.93164 2.22515,-1.0478 6.14045,-2.57353 10.01563,-3.99805 4.97401,-1.62107 13.487,-3.61104 19.33203,-4.48828 9.16385,-1.37535 12.19057,-1.44599 18.91016,-0.44141 4.39999,0.6578 10.01818,2.08199 12.48632,3.16602 2.46815,1.08404 5.54978,2.96124 6.84766,4.17187 1.29788,1.21063 3.16312,3.77618 4.14453,5.70118 0.98142,1.92499 2.0966,6.22762 2.47852,9.56054 0.38193,3.33292 0.21433,10.3691 -0.37305,15.63672 -0.58737,5.26762 -1.78261,12.44196 -2.65625,15.94141 -0.87364,3.49945 -3.39087,11.75369 -5.59375,18.34375 -2.20289,6.59006 -6.90645,19.41508 -10.45117,28.5 -3.54472,9.08492 -6.84815,17.41758 -7.3418,18.51758 -0.49364,1.1 -2.02012,4.925 -3.39258,8.5 -1.37245,3.57499 -4.08443,10.775 -6.02539,16 -1.94095,5.22499 -4.71878,13.55 -6.17382,18.5 -1.45504,4.94999 -3.50062,13.275 -4.54493,18.5 -1.0443,5.22499 -1.88017,13.325 -1.85937,18 0.0298,6.68931 0.50783,9.4586 2.24609,13 1.43692,2.92746 3.43207,5.13543 5.70899,6.3164 2.70534,1.40319 4.86225,1.6911 9.5,1.26758 3.29999,-0.30135 8.025,-1.26639 10.5,-2.14453 0.73107,-0.25939 1.94211,-0.80491 3.00586,-1.25977 0.67868,-0.18391 1.5443,-0.35394 2.06054,-0.5371 2.475,-0.87814 7.42501,-3.1364 11,-5.01758 3.575,-1.88119 11.22501,-6.95495 17,-11.27539 5.78254,-4.3261 16.36172,-13.87308 23.54688,-21.25 7.17578,-7.36731 15.99619,-17.22149 19.60156,-21.89649 3.60537,-4.67499 9.57427,-13 13.26367,-18.5 3.68941,-5.49999 9.1253,-14.95 12.07813,-21 2.95282,-6.04999 6.27883,-13.73517 7.39258,-17.08008 1.11375,-3.34491 2.51154,-9.12395 3.10546,-12.84179 0.75886,-4.75014 0.76865,-8.4416 0.0352,-12.41797 -0.57408,-3.11224 -2.26373,-8.07523 -3.75586,-11.02735 -1.49213,-2.95212 -4.84009,-7.22713 -7.43945,-9.5 -2.59936,-2.27287 -7.02996,-4.94873 -9.84571,-5.94726 -4.02684,-1.428 -5.42693,-1.55963 -6.5625,-0.61719 l -5.06835,1.79688 c -1.09507,0.90882 -1.16933,1.52733 -0.3086,2.56445 0.62413,0.75203 2.1377,1.36719 3.36328,1.36719 1.22558,0 3.63429,0.49119 5.35157,1.08984 1.71727,0.59865 3.99278,2.51115 5.05664,4.25 1.06386,1.73885 2.49352,6.53516 3.17773,10.66016 1.07462,6.47867 1.00734,8.78422 -0.49023,16.92578 -0.95352,5.18376 -3.12256,13.28377 -4.82032,18 -1.69776,4.71622 -5.54176,13.29303 -8.54296,19.06054 -3.00121,5.76752 -8.14051,14.5053 -11.41993,19.41602 -3.27941,4.91074 -9.39529,13.46256 -13.59179,19.00391 -4.19651,5.54134 -12.81693,15.4171 -19.15625,21.94531 -6.33933,6.5282 -15.12824,14.58856 -19.53125,17.91211 -4.40303,3.32355 -10.70587,7.32298 -14.00586,8.88867 -0.34195,0.16224 -0.64908,0.27067 -0.98047,0.41797 -1.73282,0.42129 -3.40928,0.63255 -5.14649,0.63281 -4.2335,6.4e-4 -5.48099,-0.4109 -6.75,-2.22265 -1.10111,-1.57206 -1.5498,-4.57185 -1.5332,-10.25 0.0135,-4.61143 0.82079,-11.00617 1.89648,-15.02735 1.0299,-3.84999 2.88037,-10.15 4.11133,-14 1.23097,-3.84999 8.30146,-23.20002 15.71289,-43 7.41144,-19.79998 15.47462,-42.07501 17.91797,-49.5 2.44335,-7.42499 5.31923,-17.43161 6.39063,-22.23828 1.16692,-5.23524 1.94726,-12.47988 1.94726,-18.06836 0,-5.56274 -0.63292,-11.46332 -1.56836,-14.61328 -0.86283,-2.90547 -2.43071,-6.93554 -3.48437,-8.95703 -1.05366,-2.02148 -3.83563,-5.54951 -6.18164,-7.83985 -2.34601,-2.29032 -6.96563,-5.48314 -10.26563,-7.0957 -3.38968,-1.65639 -10.27419,-3.72704 -15.82422,-4.75781 -4.71574,-0.87583 -7.30843,-1.31407 -10.36328,-1.32422 z m 303.79883,14.89453 c -2.37722,0 -7.08741,0.69017 -10.4668,1.5332 -2.34018,0.58381 -5.30219,1.64182 -7.98437,2.71094 -3.00268,0.94163 -6.28859,2.12712 -8.44531,3.18946 -2.86968,1.4135 -8.11957,5.23095 -11.66797,8.48242 -3.5484,3.25146 -8.60316,9.16702 -11.23242,13.14648 -2.62927,3.97947 -7.10986,11.95938 -9.95704,17.73438 -2.84717,5.77499 -7.91156,17.92501 -11.2539,27 -3.34234,9.07499 -8.04151,22.125 -10.44336,29 -2.03117,5.81397 -3.13655,8.85903 -4.7168,10.51562 -1.28433,0.0832 -2.58468,0.13417 -4.51367,0.1211 -5.46128,-0.037 -11.72969,-0.65373 -13.92969,-1.36914 -2.19999,-0.71542 -5.575,-2.00999 -7.5,-2.87696 -1.92499,-0.86697 -5.47854,-3.0637 -7.89648,-4.88281 -2.41794,-1.8191 -5.61495,-4.99517 -7.10547,-7.05664 -1.49052,-2.06147 -3.49649,-5.84536 -4.45703,-8.41016 -1.31521,-3.5117 -1.65821,-6.86003 -1.39258,-13.55664 0.31368,-7.90776 0.77314,-9.74601 4.16211,-16.59961 2.6304,-5.31952 5.88317,-9.79438 10.5,-14.44726 3.67894,-3.70769 9.16446,-8.02328 12.18945,-9.58985 1.32199,-0.68462 3.04862,-1.42517 4.75586,-2.11718 0.29502,-0.0879 0.71099,-0.26199 0.97656,-0.33204 2.91433,-0.76863 6.17684,-1.39843 7.25,-1.39843 1.07316,0 1.95118,-0.45 1.95118,-1 0,-0.0951 -0.18743,-0.17941 -0.33985,-0.26563 1.52996,-0.30892 2.85367,-0.53125 3.45508,-0.53125 1.07316,0 1.95117,-0.45 1.95117,-1 0,-0.5656 -2.86498,-1 -6.5957,-1 -3.62786,0 -9.14036,0.73352 -12.25,1.62891 -1.79844,0.51784 -3.9873,1.31429 -6.07812,2.14258 -3.03717,0.94683 -6.91124,2.42313 -9.15821,3.55273 -2.4831,1.24831 -7.26115,4.33318 -10.61914,6.85742 -3.35799,2.52425 -7.87499,6.95896 -10.03711,9.85352 -2.16211,2.89456 -4.88061,7.51172 -6.04101,10.26172 -1.16039,2.74999 -2.594,7.63758 -3.18555,10.86132 -0.86852,4.73315 -0.7644,7.23241 0.54297,12.98047 0.89045,3.915 2.7382,8.92743 4.10547,11.13868 1.36727,2.21124 3.89476,5.51916 5.61718,7.35156 1.72242,1.83239 5.60782,4.78823 8.63282,6.56836 3.02499,1.78013 7.075,3.80862 9,4.50781 1.92499,0.6992 6.36656,1.89518 9.87109,2.65625 3.50452,0.76107 10.36703,1.68411 15.25,2.05273 4.88297,0.36861 8.87891,0.85678 8.87891,1.08399 0,0.22722 -1.6193,4.32411 -3.59766,9.10547 -1.97837,4.78136 -5.5972,12.74336 -8.04297,17.69336 -2.44576,4.94999 -5.24899,10.05482 -6.22851,11.34375 -0.0241,0.0317 -0.0468,0.0414 -0.0703,0.0723 -2.51871,0.017 -6.33313,-0.21966 -13.66992,-0.74609 -12.9602,-0.92995 -19.98859,-0.9521 -29.42578,-0.0918 -6.8191,0.62163 -14.42344,1.82341 -16.89844,2.67188 -1.30681,0.44799 -2.5867,1.0113 -4.03906,1.58398 -0.24201,0.0675 -0.84097,0.149 -1.02734,0.21289 -2.475,0.84847 -5.91923,2.19763 -7.65235,2.99805 -1.73312,0.80042 -3.45057,1.45508 -3.81836,1.45508 -0.36778,0 -2.77551,1.45008 -5.34961,3.2207 -2.57408,1.77062 -5.75732,4.35812 -7.07421,5.75 -1.3169,1.39188 -3.66137,4.50123 -5.20899,6.91016 -1.54761,2.40892 -3.09573,6.26514 -3.4414,8.57031 -0.34568,2.30518 -0.11083,6.11269 0.52148,8.46094 0.66196,2.45833 2.85174,6.11837 5.16406,8.62695 2.32315,2.52031 5.98537,5.11545 8.6875,6.1582 3.59422,1.38701 7.4384,1.79518 16.67188,1.76758 9.67472,-0.029 13.16263,-0.4523 18,-2.18164 0.84115,-0.30071 1.50909,-0.63638 2.42187,-0.98828 0.8703,-0.23994 1.72863,-0.48116 2.64453,-0.8086 3.3,-1.17974 7.57501,-2.92558 9.5,-3.88085 1.925,-0.95528 6.20001,-3.55129 9.5,-5.76758 3.3,-2.21628 9.37501,-7.44101 13.5,-11.61133 4.125,-4.17032 9.27957,-9.93163 11.45508,-12.80274 0.91731,-1.21059 1.8675,-2.22135 2.75586,-3.10937 1.50738,0.17472 3.00136,0.33029 5.28906,0.73437 3.26351,0.57644 9.7586,1.9828 14.4336,3.125 4.67499,1.14221 11.875,3.19829 16,4.57032 4.12499,1.37203 12,4.60786 17.5,7.18945 5.49999,2.58159 13.375,6.89083 17.5,9.57617 4.12499,2.68535 10.69777,8.09425 14.60547,12.01953 4.62559,4.64641 8.22376,9.41337 10.31445,13.66016 2.42514,4.92617 3.35323,8.38224 3.78711,14.11914 0.52014,6.87741 0.31668,8.122 -2.14063,13.14453 -1.49285,3.05128 -3.01857,5.56419 -3.39062,5.58399 -0.37205,0.0198 -2.02578,1.14165 -3.67578,2.49414 -3,2.45902 -2.99993,2.45984 0.8457,2.46484 2.25006,0.003 5.01031,-0.82546 6.6543,-1.99609 0.0166,-0.0118 0.0437,-0.0483 0.0605,-0.0606 1.84318,-0.2736 3.74504,-0.83715 5.00782,-1.73633 1.54537,-1.10041 4.08977,-4.13791 5.65429,-6.75 2.61986,-4.37405 2.84375,-5.54003 2.84375,-14.75 0,-9.26916 -0.23722,-10.47504 -3.23828,-16.5 -1.78072,-3.57499 -5.47559,-9.10485 -8.21289,-12.28906 -2.73731,-3.18422 -7.34764,-7.81276 -10.24414,-10.28516 -2.89649,-2.4724 -8.52329,-6.74625 -12.50391,-9.49804 -3.98062,-2.7518 -12.08968,-7.4364 -18.01953,-10.41016 -5.92984,-2.97375 -14.83125,-6.92874 -19.78125,-8.78906 -4.94999,-1.86031 -11.475,-4.09572 -14.5,-4.96875 -3.02499,-0.87303 -7.6375,-2.17553 -10.25,-2.89258 -2.61249,-0.71705 -4.75,-1.66461 -4.75,-2.10547 0,-0.44085 1.15647,-2.63061 2.56836,-4.86719 1.41189,-2.23657 5.9119,-10.7699 10,-18.96289 4.08811,-8.19298 7.43164,-15.28356 7.43164,-15.75781 0,-0.47425 0.7875,-1.53457 1.75,-2.35547 0.15395,-0.1313 0.68694,-0.30498 0.95899,-0.45312 0.59494,-0.15343 1.12581,-0.35161 1.72461,-0.47461 3.29999,-0.6779 8.7,-2.13169 12,-3.23047 0.73161,-0.2436 1.88644,-0.76161 2.83203,-1.13672 0.733,-0.22191 1.61989,-0.45556 2.23437,-0.66016 3.3,-1.09878 9.29298,-3.76546 13.31836,-5.92578 4.02538,-2.16032 10.61631,-6.41015 14.64649,-9.44336 4.03018,-3.03319 11.13678,-9.51544 15.79101,-14.40625 4.65424,-4.89081 10.61354,-12.13089 13.24414,-16.08789 2.6306,-3.95698 6.25424,-10.18882 8.05274,-13.84765 1.7985,-3.65883 4.27688,-9.57735 5.50586,-13.15235 1.28375,-3.73434 2.43879,-10.01986 2.71484,-14.77344 0.3598,-6.19561 0.0673,-9.35587 -1.16406,-12.58007 -0.90443,-2.36821 -2.87423,-5.43243 -4.37696,-6.81055 -1.50273,-1.37811 -4.77224,-3.25449 -7.26562,-4.16992 -2.49339,-0.91543 -6.47825,-1.66602 -8.85547,-1.66602 z m -4.64648,12.79688 c 1.1931,0 3.57569,0.49119 5.29297,1.08984 1.76289,0.61455 4.06153,2.60774 5.27929,4.57813 1.9421,3.14238 2.10213,4.4513 1.61328,13.16015 -0.36307,6.46793 -1.25862,11.49379 -2.70507,15.17188 -1.18962,3.02499 -3.75374,8.63536 -5.69727,12.46679 -1.94352,3.83145 -5.3534,9.64777 -7.57813,12.92383 -2.22473,3.27607 -7.46313,9.53612 -11.64062,13.91211 -4.17748,4.376 -10.14969,9.92332 -13.27148,12.32813 -3.12179,2.4048 -9.01506,6.17393 -13.09571,8.375 -2.95041,1.59143 -6.61652,3.21833 -9.80664,4.5 -2.94902,0.88056 -6.37388,1.83027 -8.10547,2.13281 -2.8296,0.49437 -3.75,0.31851 -3.75,-0.7168 0,-0.75464 2.74096,-7.63715 6.08985,-15.29492 3.34887,-7.65778 6.80085,-15.49883 7.67187,-17.42383 0.87103,-1.925 4.18991,-9.04603 7.375,-15.82422 3.1851,-6.77818 8.62064,-17.09931 12.07813,-22.9375 4.21524,-7.11772 8.92082,-13.3207 14.28515,-18.82617 4.78078,-4.90656 7.21719,-7.04749 9.85547,-8.39062 2.54835,-0.67629 5.11505,-1.22461 6.10938,-1.22461 z M 408.98633,633.13477 c 4.51672,-0.0545 9.09742,1.8e-4 12.65039,0.17968 8.05193,0.40679 13.05804,1.07239 13.28711,1.76563 0.20216,0.6118 -1.73728,3.7618 -4.31055,7 -2.57326,3.2382 -8.06019,9.17082 -12.1914,13.18359 -4.13123,4.01277 -10.60956,9.13774 -14.39844,11.38867 -2.48483,1.47621 -5.79669,2.95658 -8.94336,4.20508 -3.70645,0.9626 -9.33268,1.71448 -12.79688,1.66797 -3.57499,-0.048 -8.93071,-0.79321 -11.90234,-1.65625 -3.46549,-1.00647 -6.82819,-2.92502 -9.37695,-5.34961 -3.87288,-3.68418 -3.96266,-3.92159 -3.51172,-9.35937 0.40931,-4.93576 0.95368,-6.07967 4.7207,-9.91797 2.34203,-2.38636 6.69546,-5.53187 9.67383,-6.99024 1.72533,-0.84481 4.15577,-1.83914 6.60937,-2.77343 3.4398,-1.05203 11.62883,-2.33968 18.22071,-2.86329 3.29999,-0.26213 7.7528,-0.426 12.26953,-0.48046 z m -43.08789,39.64648 c -0.16341,-0.0433 -0.43243,-0.0712 -0.58399,-0.11523 -19.38832,-17.98608 -15.63715,-8.33844 0.58399,0.11523 z" /></g></svg>
